<svg width="15" height="24" viewBox="0 0 15 24" fill="none" xmlns="http://www.w3.org/2000/svg">
<path d="M14.3203 13.6641C14.7734 14.5547 15 15.5 15 16.5C15 17.1875 14.9102 17.8516 14.7305 18.4922C14.5508 19.1328 14.3008 19.7305 13.9805 20.2852C13.6602 20.8398 13.2695 21.3438 12.8086 21.7969C12.3477 22.25 11.8398 22.6406 11.2852 22.9688C10.7305 23.2969 10.1328 23.5508 9.49219 23.7305C8.85156 23.9102 8.1875 24 7.5 24C6.8125 24 6.14844 23.9102 5.50781 23.7305C4.86719 23.5508 4.26953 23.3008 3.71484 22.9805C3.16016 22.6602 2.65625 22.2695 2.20312 21.8086C1.75 21.3477 1.35938 20.8398 1.03125 20.2852C0.703125 19.7305 0.449219 19.1328 0.269531 18.4922C0.0898438 17.8516 0 17.1875 0 16.5C0 15.5078 0.21875 14.5664 0.65625 13.6758L7.44141 0L14.3203 13.6641Z" fill="#2598B2"/>
</svg>
