<svg width="121" height="20" viewBox="0 0 121 20" fill="none" xmlns="http://www.w3.org/2000/svg">
<path d="M29.84 1.12L23.7333 19.7867H19.0933L14.9867 7.14666L10.7467 19.7867H6.13333L0 1.12H4.48L8.69333 14.24L13.0933 1.12H17.0933L21.36 14.3467L25.7067 1.12H29.84Z" fill="#25B24C"/>
<path d="M44.944 12.6667C44.944 12.72 44.9173 13.0933 44.864 13.7867H34.0106C34.2062 14.6756 34.6684 15.3778 35.3973 15.8933C36.1262 16.4089 37.0329 16.6667 38.1173 16.6667C38.864 16.6667 39.5217 16.56 40.0906 16.3467C40.6773 16.1156 41.2195 15.76 41.7173 15.28L43.9306 17.68C42.5795 19.2267 40.6062 20 38.0106 20C36.3928 20 34.9617 19.6889 33.7173 19.0667C32.4728 18.4267 31.5128 17.5467 30.8373 16.4267C30.1617 15.3067 29.824 14.0356 29.824 12.6133C29.824 11.2089 30.1528 9.94666 30.8106 8.82666C31.4862 7.68889 32.4017 6.80888 33.5573 6.18666C34.7306 5.54666 36.0373 5.22666 37.4773 5.22666C38.8817 5.22666 40.1529 5.52889 41.2906 6.13333C42.4284 6.73777 43.3173 7.60888 43.9573 8.74666C44.6151 9.86666 44.944 11.1733 44.944 12.6667ZM37.504 8.37333C36.5617 8.37333 35.7706 8.64 35.1306 9.17333C34.4906 9.70666 34.0995 10.4356 33.9573 11.36H41.024C40.8817 10.4533 40.4906 9.73333 39.8506 9.2C39.2106 8.64889 38.4284 8.37333 37.504 8.37333Z" fill="#25B24C"/>
<path d="M53.1096 5.22666C55.3318 5.22666 57.0385 5.76 58.2296 6.82666C59.4207 7.87555 60.0163 9.46666 60.0163 11.6V19.7867H56.1229V18C55.3407 19.3333 53.8829 20 51.7496 20C50.6474 20 49.6874 19.8133 48.8696 19.44C48.0696 19.0667 47.4563 18.5511 47.0296 17.8933C46.6029 17.2356 46.3896 16.4889 46.3896 15.6533C46.3896 14.32 46.8874 13.2711 47.8829 12.5067C48.8963 11.7422 50.4518 11.36 52.5496 11.36H55.8563C55.8563 10.4533 55.5807 9.76 55.0296 9.28C54.4785 8.78222 53.6518 8.53333 52.5496 8.53333C51.7851 8.53333 51.0296 8.65777 50.2829 8.90666C49.554 9.13777 48.9318 9.45777 48.4163 9.86666L46.9229 6.96C47.7051 6.40889 48.6385 5.98222 49.7229 5.68C50.8251 5.37777 51.954 5.22666 53.1096 5.22666ZM52.7896 17.2C53.5007 17.2 54.1318 17.04 54.6829 16.72C55.234 16.3822 55.6251 15.8933 55.8563 15.2533V13.7867H53.0029C51.2963 13.7867 50.4429 14.3467 50.4429 15.4667C50.4429 16 50.6474 16.4267 51.0563 16.7467C51.4829 17.0489 52.0607 17.2 52.7896 17.2Z" fill="#25B24C"/>
<path d="M73.3644 19.0933C72.9556 19.3956 72.4489 19.6267 71.8444 19.7867C71.2578 19.9289 70.6356 20 69.9778 20C68.2711 20 66.9467 19.5644 66.0044 18.6933C65.08 17.8222 64.6178 16.5422 64.6178 14.8533V8.96H62.4044V5.76H64.6178V2.26667H68.7778V5.76H72.3511V8.96H68.7778V14.8C68.7778 15.4044 68.9289 15.8756 69.2311 16.2133C69.5511 16.5333 69.9956 16.6933 70.5644 16.6933C71.2222 16.6933 71.7822 16.5156 72.2444 16.16L73.3644 19.0933Z" fill="#2598B2"/>
<path d="M84.4197 5.22667C86.1974 5.22667 87.6285 5.76 88.713 6.82667C89.8152 7.89333 90.3663 9.47556 90.3663 11.5733V19.7867H86.2063V12.2133C86.2063 11.0756 85.9574 10.2311 85.4597 9.68C84.9619 9.11111 84.2419 8.82667 83.2997 8.82667C82.2508 8.82667 81.4152 9.15556 80.793 9.81333C80.1708 10.4533 79.8597 11.4133 79.8597 12.6933V19.7867H75.6997V0H79.8597V6.93333C80.4108 6.38222 81.0774 5.96445 81.8597 5.68C82.6419 5.37778 83.4952 5.22667 84.4197 5.22667Z" fill="#2598B2"/>
<path d="M108.72 12.6667C108.72 12.72 108.693 13.0934 108.64 13.7867H97.7867C97.9822 14.6756 98.4444 15.3778 99.1733 15.8934C99.9022 16.4089 100.809 16.6667 101.893 16.6667C102.64 16.6667 103.298 16.56 103.867 16.3467C104.453 16.1156 104.996 15.76 105.493 15.28L107.707 17.68C106.356 19.2267 104.382 20 101.787 20C100.169 20 98.7378 19.6889 97.4933 19.0667C96.2489 18.4267 95.2889 17.5467 94.6133 16.4267C93.9378 15.3067 93.6 14.0356 93.6 12.6134C93.6 11.2089 93.9289 9.94668 94.5867 8.82668C95.2622 7.68891 96.1778 6.80891 97.3333 6.18668C98.5067 5.54668 99.8133 5.22668 101.253 5.22668C102.658 5.22668 103.929 5.52891 105.067 6.13335C106.204 6.7378 107.093 7.60891 107.733 8.74668C108.391 9.86668 108.72 11.1734 108.72 12.6667ZM101.28 8.37335C100.338 8.37335 99.5467 8.64002 98.9067 9.17335C98.2667 9.70668 97.8756 10.4356 97.7333 11.36H104.8C104.658 10.4534 104.267 9.73335 103.627 9.20002C102.987 8.64891 102.204 8.37335 101.28 8.37335Z" fill="#2533B2"/>
<path d="M115.463 7.33335C115.961 6.64002 116.627 6.11557 117.463 5.76002C118.316 5.40446 119.294 5.22668 120.396 5.22668V9.06668C119.934 9.03113 119.623 9.01335 119.463 9.01335C118.272 9.01335 117.338 9.35113 116.663 10.0267C115.987 10.6845 115.65 11.68 115.65 13.0134V19.7867H111.49V5.44002H115.463V7.33335Z" fill="#2533B2"/>
</svg>
