<svg width="23" height="21" viewBox="0 0 23 21" fill="none" xmlns="http://www.w3.org/2000/svg">
<path d="M11.2148 0C12.6445 0 14.0156 0.257812 15.3281 0.773438C16.6406 1.28906 17.8242 2.03906 18.8789 3.02344C19.9492 4.02344 20.7734 5.13672 21.3516 6.36328C21.9297 7.58984 22.2852 8.93359 22.418 10.3945V10.4297C22.418 10.4375 22.4219 10.4531 22.4297 10.4766C22.4297 10.5703 22.4141 10.6602 22.3828 10.7461C22.3516 10.832 22.3008 10.9141 22.2305 10.9922C22.1602 11.0703 22.082 11.125 21.9961 11.1562C21.9102 11.1875 21.8203 11.2109 21.7266 11.2266C21.6797 11.2266 21.625 11.2227 21.5625 11.2148C21.5 11.207 21.4414 11.1914 21.3867 11.168C21.3242 11.1367 21.2695 11.1055 21.2227 11.0742C21.1758 11.043 21.1289 10.9961 21.082 10.9336C20.7617 10.5586 20.4141 10.2695 20.0391 10.0664C19.6641 9.86328 19.2227 9.75781 18.7148 9.75C18.2383 9.75 17.7891 9.85547 17.3672 10.0664C16.9453 10.2773 16.5938 10.5781 16.3125 10.9688C16.2422 11.0625 16.1836 11.1562 16.1367 11.25C16.0898 11.3438 16.0352 11.4453 15.9727 11.5547C15.9023 11.6875 15.8086 11.793 15.6914 11.8711C15.5742 11.9492 15.4375 11.9922 15.2812 12H14.6484C14.4922 12 14.3555 11.9609 14.2383 11.8828C14.1211 11.8047 14.0273 11.6953 13.957 11.5547C13.8398 11.3359 13.7188 11.1367 13.5938 10.957C13.4688 10.7773 13.3242 10.6172 13.1602 10.4766C12.9961 10.3359 12.8203 10.2109 12.6328 10.1016C12.4453 9.99219 12.2227 9.90625 11.9648 9.84375V18C11.9648 18.4062 11.8867 18.7891 11.7305 19.1484C11.5742 19.5078 11.3555 19.8281 11.0742 20.1094C10.793 20.3906 10.4766 20.6055 10.125 20.7539C9.77344 20.9023 9.38672 20.9844 8.96484 21C8.55859 21 8.17578 20.9219 7.81641 20.7656C7.45703 20.6094 7.13672 20.3906 6.85547 20.1094C6.57422 19.8281 6.35938 19.5117 6.21094 19.1602C6.0625 18.8086 5.98047 18.4219 5.96484 18V17.5312C5.96484 17.3594 5.98047 17.1953 6.01172 17.0391C6.04297 16.8828 6.11328 16.7539 6.22266 16.6523C6.33203 16.5508 6.49609 16.5 6.71484 16.5C6.93359 16.5 7.09375 16.5508 7.19531 16.6523C7.29688 16.7539 7.37109 16.8789 7.41797 17.0273C7.46484 17.1758 7.48438 17.3398 7.47656 17.5195C7.46875 17.6992 7.46484 17.8594 7.46484 18C7.46484 18.2031 7.50391 18.3945 7.58203 18.5742C7.66016 18.7539 7.76953 18.9102 7.91016 19.043C8.05078 19.1758 8.21094 19.2852 8.39062 19.3711C8.57031 19.457 8.76172 19.5 8.96484 19.5C9.16016 19.5 9.34766 19.4609 9.52734 19.3828C9.70703 19.3047 9.86719 19.1953 10.0078 19.0547C10.1484 18.9141 10.2578 18.7539 10.3359 18.5742C10.4141 18.3945 10.457 18.2031 10.4648 18V9.84375C10.2148 9.91406 9.99219 10 9.79688 10.1016C9.60156 10.2031 9.42578 10.3242 9.26953 10.4648C9.11328 10.6055 8.97266 10.7695 8.84766 10.957C8.72266 11.1445 8.59766 11.3438 8.47266 11.5547C8.40234 11.6875 8.30859 11.793 8.19141 11.8711C8.07422 11.9492 7.9375 11.9922 7.78125 12H7.14844C6.99219 12 6.85547 11.9609 6.73828 11.8828C6.62109 11.8047 6.52734 11.6953 6.45703 11.5547C6.40234 11.4531 6.35156 11.3555 6.30469 11.2617C6.25781 11.168 6.19531 11.0703 6.11719 10.9688C5.83594 10.5859 5.48438 10.2891 5.0625 10.0781C4.64062 9.86719 4.19141 9.75781 3.71484 9.75C3.19922 9.75 2.75781 9.85156 2.39062 10.0547C2.02344 10.2578 1.67578 10.5508 1.34766 10.9336C1.26172 11.0273 1.17578 11.0977 1.08984 11.1445C1.00391 11.1914 0.890625 11.2188 0.75 11.2266C0.546875 11.2266 0.371094 11.1523 0.222656 11.0039C0.0742188 10.8555 0 10.6758 0 10.4648V10.418C0.0859375 9.44141 0.28125 8.50391 0.585938 7.60547C0.890625 6.70703 1.29688 5.875 1.80469 5.10938C2.3125 4.34375 2.89844 3.64453 3.5625 3.01172C4.22656 2.37891 4.96484 1.83984 5.77734 1.39453C6.58984 0.949219 7.44922 0.605469 8.35547 0.363281C9.26172 0.121094 10.2148 0 11.2148 0ZM18.7148 8.25C19.043 8.25 19.3633 8.28516 19.6758 8.35547C19.9883 8.42578 20.2969 8.53125 20.6016 8.67188C20.3125 7.61719 19.8672 6.65234 19.2656 5.77734C18.6641 4.90234 17.9453 4.14453 17.1094 3.50391C16.2734 2.86328 15.3594 2.37109 14.3672 2.02734C13.375 1.68359 12.3242 1.50781 11.2148 1.5C10.1211 1.5 9.07031 1.67578 8.0625 2.02734C7.05469 2.37891 6.13672 2.87109 5.30859 3.50391C4.48047 4.13672 3.76562 4.89062 3.16406 5.76562C2.5625 6.64062 2.11719 7.60938 1.82812 8.67188C2.125 8.53125 2.42969 8.42578 2.74219 8.35547C3.05469 8.28516 3.37891 8.25 3.71484 8.25C4.47266 8.25 5.17969 8.42578 5.83594 8.77734C6.49219 9.12891 7.03516 9.625 7.46484 10.2656C7.88672 9.63281 8.42578 9.14062 9.08203 8.78906C9.73828 8.4375 10.4492 8.25781 11.2148 8.25C11.9727 8.25 12.6797 8.42578 13.3359 8.77734C13.9922 9.12891 14.5352 9.625 14.9648 10.2656C15.3867 9.63281 15.9258 9.14062 16.582 8.78906C17.2383 8.4375 17.9492 8.25781 18.7148 8.25Z" fill="#2598B2"/>
</svg>
