<svg width="24" height="18" viewBox="0 0 24 18" fill="none" xmlns="http://www.w3.org/2000/svg">
<path d="M18 4.50037C18 5.12537 17.8828 5.7074 17.6484 6.24646C17.4141 6.78552 17.0938 7.26208 16.6875 7.67615C16.2812 8.09021 15.8008 8.41443 15.2461 8.6488C14.6914 8.88318 14.1094 9.00037 13.5 9.00037H0V7.50037H13.5C13.9141 7.50037 14.3008 7.42224 14.6602 7.26599C15.0195 7.10974 15.3398 6.8949 15.6211 6.62146C15.9023 6.34802 16.1172 6.03162 16.2656 5.67224C16.4141 5.31287 16.4922 4.92224 16.5 4.50037C16.5 4.0863 16.4219 3.69958 16.2656 3.34021C16.1094 2.98083 15.8945 2.66052 15.6211 2.37927C15.3477 2.09802 15.0312 1.88318 14.6719 1.73474C14.3125 1.5863 13.9219 1.50818 13.5 1.50037C13.0859 1.50037 12.6992 1.57849 12.3398 1.73474C11.9805 1.89099 11.6602 2.10583 11.3789 2.37927C11.0977 2.65271 10.8828 2.96912 10.7344 3.32849C10.5859 3.68787 10.5078 4.07849 10.5 4.50037H9C9 3.88318 9.11719 3.30115 9.35156 2.75427C9.58594 2.2074 9.90625 1.73083 10.3125 1.32458C10.7188 0.918335 11.1953 0.594116 11.7422 0.351929C12.2891 0.109741 12.875 -0.00744629 13.5 0.000366211C14.1172 0.000366211 14.6992 0.117554 15.2461 0.351929C15.793 0.586304 16.2695 0.906616 16.6758 1.31287C17.082 1.71912 17.4062 2.19958 17.6484 2.75427C17.8906 3.30896 18.0078 3.89099 18 4.50037ZM21 7.50037C21.4141 7.50037 21.8008 7.57849 22.1602 7.73474C22.5195 7.89099 22.8398 8.10583 23.1211 8.37927C23.4023 8.65271 23.6172 8.96912 23.7656 9.32849C23.9141 9.68787 23.9922 10.0785 24 10.5004C24 10.9144 23.9219 11.3011 23.7656 11.6605C23.6094 12.0199 23.3945 12.3402 23.1211 12.6215C22.8477 12.9027 22.5312 13.1176 22.1719 13.266C21.8125 13.4144 21.4219 13.4926 21 13.5004H19.1016C19.3672 13.9535 19.5 14.4535 19.5 15.0004C19.5 15.4144 19.4219 15.8011 19.2656 16.1605C19.1094 16.5199 18.8945 16.8402 18.6211 17.1215C18.3477 17.4027 18.0312 17.6176 17.6719 17.766C17.3125 17.9144 16.9219 17.9926 16.5 18.0004C16.0859 18.0004 15.6992 17.9222 15.3398 17.766C14.9805 17.6097 14.6602 17.3949 14.3789 17.1215C14.0977 16.848 13.8828 16.5316 13.7344 16.1722C13.5859 15.8129 13.5078 15.4222 13.5 15.0004H15C15 15.2113 15.0391 15.4066 15.1172 15.5863C15.1953 15.766 15.3008 15.9222 15.4336 16.0551C15.5664 16.1879 15.7266 16.2972 15.9141 16.3832C16.1016 16.4691 16.2969 16.5082 16.5 16.5004C16.7109 16.5004 16.9062 16.4613 17.0859 16.3832C17.2656 16.3051 17.4219 16.1996 17.5547 16.0668C17.6875 15.934 17.7969 15.7738 17.8828 15.5863C17.9688 15.3988 18.0078 15.2035 18 15.0004C18 14.7894 17.9609 14.5941 17.8828 14.4144C17.8047 14.2347 17.6992 14.0785 17.5664 13.9457C17.4336 13.8129 17.2734 13.7035 17.0859 13.6176C16.8984 13.5316 16.7031 13.4926 16.5 13.5004H0V12.0004H21C21.2109 12.0004 21.4062 11.9613 21.5859 11.8832C21.7656 11.8051 21.9219 11.6996 22.0547 11.5668C22.1875 11.434 22.2969 11.2738 22.3828 11.0863C22.4688 10.8988 22.5078 10.7035 22.5 10.5004C22.5 10.2894 22.4609 10.0941 22.3828 9.91443C22.3047 9.73474 22.1992 9.57849 22.0664 9.44568C21.9336 9.31287 21.7734 9.20349 21.5859 9.11755C21.3984 9.03162 21.2031 8.99255 21 9.00037C20.7891 9.00037 20.5938 9.03943 20.4141 9.11755C20.2344 9.19568 20.0781 9.30115 19.9453 9.43396C19.8125 9.56677 19.7031 9.72693 19.6172 9.91443C19.5312 10.1019 19.4922 10.2972 19.5 10.5004H18C18 10.0863 18.0781 9.69958 18.2344 9.34021C18.3906 8.98083 18.6055 8.66052 18.8789 8.37927C19.1523 8.09802 19.4688 7.88318 19.8281 7.73474C20.1875 7.5863 20.5781 7.50818 21 7.50037Z" fill="#73E394"/>
</svg>
